<svg xmlns="http://www.w3.org/2000/svg" xmlns:xlink="http://www.w3.org/1999/xlink" id="Layer_1" x="0" y="0" version="1.1" viewBox="0 0 122.4 221.6" xml:space="preserve" style="enable-background:new 0 0 122.4 221.6"><style type="text/css">.st0{fill:#f8bd7a}.st1{fill:#262b40}</style><path d="M914.3,109.3L912,109c0.2,1.2,0.3,2.5,0.5,3.8C913,111.6,913.6,110.4,914.3,109.3z" class="st0"/><path d="M44.7,114.8L2.6,221.6L120.1,75.2l-51.8,1.2L112,3.9c0-0.1,0-0.1,0.1-0.2c0-0.1,0-0.2,0.1-0.3l0,0	c0-0.1,0-0.1,0.1-0.1c0.1-0.2,0.1-0.4,0.2-0.6c0-0.2,0.1-0.3,0.2-0.4c-0.1-0.2,0-0.4,0.1-0.5c0.1-0.1,0.2-0.2,0.3-0.2V1.3	c0-0.2,0.1-0.3,0.2-0.4l0,0V0.8c0-0.1,0-0.1,0.1-0.1l0,0V0.6c0-0.2,0.1-0.4,0.2-0.6L54,1.4L0,116.1L44.7,114.8z" class="st1"/></svg>